<svg width="26" height="24" viewBox="0 0 26 24" fill="none" xmlns="http://www.w3.org/2000/svg">
<path d="M0 3.72C0 1.6655 1.6655 0 3.72 0H21.6C23.6545 0 25.32 1.6655 25.32 3.72V20.28C25.32 22.3345 23.6545 24 21.6 24H3.72C1.6655 24 0 22.3345 0 20.28V3.72Z" fill="white"/>
<path d="M4.54224 20.9381C4.44329 20.8941 4.37183 20.8447 4.48727 20.7457C4.55873 20.6908 4.63569 20.6413 4.71265 20.5918C5.43276 20.1246 6.10889 19.6133 6.55415 18.8602C6.92795 18.2336 6.86748 17.8653 6.40023 17.4035C3.79465 14.7979 2.65127 11.6811 3.22296 7.99812C3.54728 5.92025 4.49826 4.12272 5.88351 2.56157C6.71906 1.61608 7.71402 0.851994 8.80243 0.214339C8.8684 0.17586 8.96185 0.164866 8.97284 0.0659197C8.95085 0.0109495 8.91237 0.0274405 8.87939 0.0274405C7.02689 0.0274405 5.1744 -0.0110386 3.3274 0.0384346C1.55736 0.0934048 0.0291857 1.46216 0.0346828 3.4246C0.0456768 9.158 0.0346828 14.8914 0.0346828 20.6303C0.0346828 22.4113 1.39245 23.901 3.16799 23.967C4.66867 24.0274 6.16936 23.978 7.67554 23.9725C7.78548 23.978 7.89542 23.9835 8.00536 23.9835H15.9431C17.922 23.9835 19.9009 23.9945 21.8798 23.9835C23.7159 23.9835 25.2055 22.4993 25.2055 20.6688V20.6358V17.42C25.2055 17.3431 25.233 17.2606 25.1836 17.1782C25.0846 17.1837 25.0461 17.2661 24.9912 17.3211C23.9247 18.393 22.6659 19.256 21.2862 19.8662C17.9055 21.3559 14.4644 21.4603 10.9738 20.262C10.6714 20.152 10.3416 20.141 10.0283 20.218C9.56652 20.3334 9.11027 20.4709 8.65401 20.6083C7.31274 21.0261 5.94398 21.213 4.54224 20.9381ZM8.52758 11.6756C8.62103 11.5547 8.6705 11.4832 8.72547 11.4118C9.44558 10.4993 10.1657 9.58676 10.8858 8.66876C11.0947 8.4049 11.3036 8.13555 11.4355 7.81672C11.5894 7.45392 11.4245 7.1131 11.0507 6.98117C10.8858 6.9317 10.7099 6.90971 10.534 6.92071C9.55552 6.91521 8.57156 6.91521 7.59309 6.92071C7.45566 6.92071 7.31824 6.9372 7.18631 6.97018C6.87847 7.04714 6.69158 7.36047 6.76853 7.6738C6.8235 7.88269 6.98842 8.0476 7.1973 8.09707C7.32923 8.13005 7.46666 8.14654 7.60408 8.14105C8.19776 8.14654 8.79694 8.14105 9.39061 8.14654C9.45658 8.14654 9.53903 8.10257 9.58851 8.20151C9.53903 8.26748 9.48956 8.33344 9.44009 8.39391C8.58805 9.47133 7.74151 10.5542 6.88947 11.6317C6.68058 11.901 6.57064 12.1979 6.72456 12.5277C6.87848 12.8575 7.19181 12.918 7.51063 12.9399C7.7635 12.9564 8.02186 12.9454 8.28022 12.9454C9.17073 12.9454 10.0558 12.9509 10.9463 12.9399C11.419 12.9345 11.6719 12.6486 11.6224 12.2088C11.5839 11.8625 11.3476 11.6811 10.9078 11.6756C10.1327 11.6701 9.35763 11.6756 8.52758 11.6756ZM14.9041 8.7842C14.217 8.18502 13.4584 8.14654 12.7163 8.58631C11.8148 9.11402 11.485 9.97705 11.5949 10.9775C11.6994 11.912 12.1061 12.6761 13.0846 12.9894C13.6948 13.1873 14.261 13.1159 14.7612 12.7091C14.8931 12.6046 14.9316 12.6266 15.0251 12.7421C15.2065 12.9729 15.5198 13.0609 15.7946 12.9564C16.0695 12.874 16.2509 12.6211 16.2509 12.3353C16.2564 11.2359 16.2619 10.1365 16.2509 9.03706C16.2454 8.5973 15.8331 8.31695 15.4044 8.4049C15.168 8.45438 15.0361 8.61379 14.9041 8.7842ZM18.7136 10.8236C18.6916 12.1979 19.8295 13.2368 21.2587 13.0939C22.5725 12.9619 23.4245 11.978 23.3805 10.5872C23.3366 9.21297 22.3141 8.27298 20.9124 8.31695C19.5986 8.35543 18.6696 9.41086 18.7136 10.8236ZM18.2298 9.72969C18.2298 8.86665 18.2353 8.00912 18.2298 7.14609C18.2298 6.70632 17.9495 6.43147 17.5317 6.43697C17.1249 6.44247 16.8556 6.71732 16.8501 7.14059C16.8446 7.39895 16.8501 7.65181 16.8501 7.91017V12.2803C16.8501 12.6211 17.059 12.918 17.3338 12.9894C17.7131 13.0939 18.1034 12.8685 18.2023 12.4892C18.2188 12.4232 18.2298 12.3573 18.2243 12.2858C18.2353 11.4338 18.2298 10.5817 18.2298 9.72969Z" fill="#FDFEFE"/>
<path d="M7.67004 23.978C6.16935 23.978 4.66317 24.0274 3.16248 23.9725C1.38694 23.901 0.0291748 22.4113 0.0291748 20.6358C0.0291748 14.9024 0.0401689 9.16898 0.0291748 3.43009C0.0291748 1.46765 1.56284 0.0988941 3.32739 0.0494209C5.17439 -5.22975e-05 7.02688 0.0384268 8.87938 0.0384268C8.91236 0.0384268 8.95634 0.0219358 8.97283 0.076906C8.96184 0.175852 8.86289 0.186846 8.80242 0.225326C7.71401 0.86298 6.71905 1.62707 5.8835 2.57255C4.50375 4.13371 3.54727 5.92574 3.22294 8.00911C2.65125 11.6866 3.80013 14.8089 6.40022 17.4145C6.86197 17.8818 6.92244 18.2446 6.55414 18.8712C6.10888 19.6243 5.43275 20.1355 4.71264 20.6028C4.63568 20.6468 4.55872 20.7017 4.48176 20.7512C4.36633 20.8501 4.43779 20.8996 4.53673 20.9436C4.55872 20.9931 4.58621 21.037 4.61919 21.081C5.25135 21.6417 5.85052 22.2409 6.47169 22.8126C6.76303 23.0819 7.05437 23.3623 7.33472 23.6426C7.45016 23.7471 7.64255 23.7801 7.67004 23.978Z" fill="#0180C7"/>
<path d="M8.5276 11.6757C9.35765 11.6757 10.1382 11.6702 10.9133 11.6757C11.3476 11.6812 11.5839 11.8626 11.6279 12.2089C11.6774 12.6432 11.4245 12.9345 10.9518 12.94C10.0613 12.951 9.17625 12.9455 8.28573 12.9455C8.02737 12.9455 7.77451 12.9565 7.51615 12.94C7.19732 12.9235 6.884 12.8575 6.73008 12.5277C6.57616 12.1979 6.6861 11.9011 6.89499 11.6317C7.74153 10.5543 8.59357 9.47137 9.4456 8.39395C9.49508 8.32798 9.54455 8.26202 9.59402 8.20155C9.53905 8.1081 9.46209 8.15208 9.39613 8.14658C8.80245 8.14109 8.20328 8.14658 7.6096 8.14109C7.47218 8.14109 7.33475 8.12459 7.20282 8.09711C6.88949 8.02565 6.6971 7.71232 6.76856 7.40448C6.81803 7.1956 6.98294 7.02519 7.19183 6.97572C7.32376 6.94273 7.46118 6.92624 7.59861 6.92624C8.57708 6.92074 9.56104 6.92074 10.5395 6.92624C10.7154 6.92074 10.8858 6.94273 11.0562 6.98671C11.43 7.11314 11.5894 7.45945 11.441 7.82226C11.3091 8.13559 11.1002 8.40494 10.8913 8.6743C10.1712 9.5923 9.4511 10.5048 8.73099 11.4118C8.67053 11.4833 8.61556 11.5547 8.5276 11.6757Z" fill="#0180C7"/>
<path d="M14.9041 8.7842C15.0361 8.61379 15.1735 8.45437 15.3989 8.4104C15.8331 8.32245 16.2399 8.60279 16.2454 9.04256C16.2619 10.142 16.2564 11.2414 16.2454 12.3408C16.2454 12.6266 16.0585 12.8795 15.7892 12.9619C15.5143 13.0664 15.201 12.9839 15.0196 12.7475C14.9261 12.6321 14.8877 12.6101 14.7557 12.7146C14.2555 13.1213 13.6893 13.1928 13.0791 12.9949C12.1007 12.6761 11.6994 11.912 11.5894 10.983C11.474 9.97705 11.8093 9.11951 12.7108 8.5918C13.4584 8.14654 14.217 8.18502 14.9041 8.7842ZM12.9582 10.7906C12.9692 11.0325 13.0461 11.2634 13.1891 11.4557C13.4859 11.8515 14.0521 11.934 14.4534 11.6371C14.5193 11.5877 14.5798 11.5272 14.6348 11.4557C14.9426 11.038 14.9426 10.3508 14.6348 9.93307C14.4809 9.71869 14.239 9.59226 13.9806 9.58676C13.376 9.54828 12.9527 10.0155 12.9582 10.7906ZM18.7136 10.8236C18.6696 9.41086 19.5986 8.35543 20.9179 8.31695C22.3196 8.27297 23.3421 9.21296 23.386 10.5872C23.43 11.978 22.578 12.9619 21.2642 13.0939C19.8295 13.2368 18.6916 12.1978 18.7136 10.8236ZM20.0933 10.6917C20.0823 10.9665 20.1648 11.2359 20.3297 11.4612C20.632 11.857 21.1982 11.934 21.594 11.6262C21.6545 11.5822 21.704 11.5272 21.7534 11.4722C22.0723 11.0545 22.0722 10.3508 21.7589 9.93307C21.605 9.72419 21.3631 9.59226 21.1048 9.58676C20.5111 9.55378 20.0933 10.0045 20.0933 10.6917ZM18.2298 9.72968C18.2298 10.5817 18.2353 11.4338 18.2298 12.2858C18.2353 12.6761 17.9275 13.0004 17.5372 13.0114C17.4712 13.0114 17.3998 13.0059 17.3338 12.9894C17.059 12.918 16.8501 12.6266 16.8501 12.2803V7.91017C16.8501 7.65181 16.8446 7.39895 16.8501 7.14059C16.8556 6.71731 17.1249 6.44246 17.5317 6.44246C17.9495 6.43697 18.2298 6.71182 18.2298 7.15158C18.2353 8.00912 18.2298 8.87215 18.2298 9.72968Z" fill="#0180C7"/>
<path d="M12.9582 10.7906C12.9527 10.0155 13.376 9.54825 13.9751 9.58123C14.2335 9.59222 14.4754 9.71865 14.6293 9.93304C14.9371 10.3453 14.9371 11.0379 14.6293 11.4557C14.3324 11.8515 13.7662 11.934 13.365 11.6371C13.299 11.5876 13.2385 11.5272 13.1836 11.4557C13.0461 11.2633 12.9692 11.0324 12.9582 10.7906ZM20.0933 10.6916C20.0933 10.01 20.5111 9.55374 21.1048 9.58672C21.3631 9.59222 21.605 9.72415 21.7589 9.93304C22.0722 10.3508 22.0722 11.0599 21.7534 11.4722C21.4456 11.8625 20.8739 11.9285 20.4836 11.6206C20.4231 11.5766 20.3737 11.5217 20.3297 11.4612C20.1648 11.2358 20.0878 10.9665 20.0933 10.6916Z" fill="#FDFEFE"/>
<path fill-rule="evenodd" clip-rule="evenodd" d="M21.7273 0.12H3.59267C1.675 0.12 0.12 1.67889 0.12 3.60277V20.3972C0.12 22.3211 1.675 23.88 3.59267 23.88H21.7273C23.645 23.88 25.2 22.3211 25.2 20.3972V3.60277C25.2 1.67889 23.645 0.12 21.7273 0.12ZM21.7273 0H3.59267C1.60841 0 0 1.61293 0 3.60277V20.3972C0 22.3871 1.60841 24 3.59267 24H21.7273C23.7116 24 25.32 22.3871 25.32 20.3972V3.60277C25.32 1.61293 23.7116 0 21.7273 0Z" fill="#0180C7"/>
<path d="M7.58603 23.9784C7.55844 23.7852 7.36526 23.7521 7.24936 23.6361C6.96788 23.349 6.67536 23.073 6.38284 22.8025C5.75916 22.2283 5.15757 21.6265 4.52285 21.0633C4.48974 21.0191 4.46214 20.975 4.44006 20.9253C5.84747 21.2013 7.22176 21.0136 8.57398 20.5995C9.03207 20.4615 9.49017 20.3235 9.95379 20.2075C10.2684 20.1247 10.5995 20.1413 10.9031 20.2517C14.4023 21.4553 17.8573 21.3449 21.2572 19.8542C22.6425 19.2414 23.9064 18.3801 24.9772 17.3035C25.0324 17.2482 25.071 17.1654 25.1703 17.1599C25.22 17.2372 25.1924 17.32 25.1924 17.4028V20.6327C25.2035 22.4767 23.7243 23.9784 21.8809 23.995H21.8533C19.8663 24.006 17.8794 23.995 15.8925 23.995H7.91719C7.8068 23.984 7.69642 23.9784 7.58603 23.9784Z" fill="#0172B1"/>
</svg>
